<?xml version="1.0"?>
<svg width="200" height="200" xmlns="http://www.w3.org/2000/svg" xmlns:svg="http://www.w3.org/2000/svg">
 <defs>
  <clipPath id="clip0_3340_1171">
   <rect fill="white" height="122" id="svg_1" width="536"/>
  </clipPath>
 </defs>
 <g class="layer" display="none">
  <title>bkgd</title>
  <rect fill="#000000" height="200.84" id="svg_7" stroke="#000000" stroke-width="0" width="199.58" x="0.08" y="0"/>
 </g>
 <g class="layer">
  <title>circle_bkgd</title>
  <ellipse cx="99.87" cy="100.21" fill="#000000" id="svg_8" rx="98.12" ry="98.12" stroke="#000000" stroke-width="0"/>
 </g>
 <g class="layer" display="inline">
  <title>Layer 1</title>
  <g clip-path="url(#clip0_3340_1171)" id="svg_2" transform="translate(0 0.41841) matrix(1.59655 0 0 1.59655 2.61479 2.15506)">
   <mask height="122" id="mask0_3340_1171" maskUnits="userSpaceOnUse" width="536" x="0" y="0">
    <path d="m535.01,0l-535.01,0l0,121.64l535.01,0l0,-121.64z" fill="white" id="svg_3"/>
   </mask>
   <g id="svg_4" mask="url(#mask0_3340_1171)">
    <path d="m25.29,57.91c0,-0.68 0.13,-1.35 0.4,-1.97c0.26,-0.63 0.64,-1.2 1.12,-1.68c0.48,-0.48 1.05,-0.86 1.68,-1.12c0.63,-0.25 1.3,-0.39 1.98,-0.38l8.59,0.03c1.37,0 2.68,0.54 3.65,1.51c0.97,0.97 1.52,2.28 1.52,3.65l0,32.48c0.96,-0.29 2.2,-0.59 3.56,-0.91c0.95,-0.22 1.79,-0.76 2.39,-1.52c0.6,-0.76 0.93,-1.7 0.93,-2.67l0,-40.29c0,-1.37 0.54,-2.68 1.51,-3.65c0.97,-0.97 2.28,-1.51 3.65,-1.52l8.61,0c1.37,0.01 2.68,0.55 3.65,1.52c0.97,0.97 1.52,2.28 1.52,3.65l0,37.39c0,0 2.15,-0.87 4.25,-1.76c0.78,-0.32 1.44,-0.88 1.91,-1.58c0.47,-0.71 0.72,-1.54 0.72,-2.38l0,-44.58c0,-1.37 0.54,-2.68 1.51,-3.65c0.97,-0.97 2.28,-1.51 3.65,-1.51l8.61,0c1.37,0 2.68,0.54 3.65,1.51c0.97,0.97 1.51,2.28 1.51,3.65l0,36.71c7.47,-5.41 15.03,-11.91 21.03,-19.73c0.87,-1.14 1.45,-2.47 1.68,-3.88c0.23,-1.42 0.1,-2.86 -0.36,-4.22c-2.78,-7.99 -7.19,-15.31 -12.96,-21.5c-5.78,-6.19 -12.78,-11.1 -20.55,-14.43c-7.78,-3.33 -16.17,-5 -24.63,-4.89c-8.46,0.1 -16.81,1.96 -24.51,5.47c-7.7,3.51 -14.58,8.59 -20.2,14.92c-5.62,6.32 -9.86,13.75 -12.45,21.8c-2.59,8.06 -3.46,16.57 -2.57,24.98c0.89,8.42 3.52,16.55 7.74,23.89c0.73,1.26 1.81,2.29 3.11,2.97c1.3,0.67 2.76,0.96 4.22,0.83c1.63,-0.15 3.66,-0.35 6.07,-0.63c1.05,-0.12 2.01,-0.62 2.72,-1.41c0.7,-0.79 1.09,-1.8 1.09,-2.86l0,-32.24z" fill="white" id="svg_5"/>
    <path d="m25.1,110.01c9.07,6.6 19.8,10.56 30.98,11.45c11.18,0.88 22.4,-1.35 32.39,-6.44c10,-5.09 18.39,-12.85 24.26,-22.41c5.86,-9.57 8.96,-20.57 8.96,-31.79c0,-1.4 -0.07,-2.79 -0.16,-4.16c-22.22,33.13 -63.25,48.63 -96.43,53.34" fill="#8B8B8B" id="svg_6"/>
   </g>
  </g>
 </g>
</svg>